<?xml version="1.0" encoding="utf-8"?>
<!-- Generator: Adobe Illustrator 16.0.0, SVG Export Plug-In . SVG Version: 6.00 Build 0)  -->
<!DOCTYPE svg PUBLIC "-//W3C//DTD SVG 1.1//EN" "http://www.w3.org/Graphics/SVG/1.1/DTD/svg11.dtd">
<svg version="1.1" id="Layer_1" xmlns="http://www.w3.org/2000/svg" xmlns:xlink="http://www.w3.org/1999/xlink" x="0px" y="0px"
	 width="68.72px" height="66.087px" viewBox="0 0 68.72 66.087" enable-background="new 0 0 68.72 66.087" xml:space="preserve">
<g>
	<g>
		<g>
			<g>
				<path fill="#FFFFFF" stroke="#818181" stroke-width="2" stroke-miterlimit="10" d="M57.304,51.246
					c0,5.195-4.205,9.391-9.389,9.391c-5.18,0-9.381-4.195-9.381-9.391c0-0.666,0.074-1.32,0.213-1.955l-21.32-10.66
					c-1.722,1.965-4.226,3.242-7.043,3.242C5.198,41.873,1,37.668,1,32.482c0-5.178,4.198-9.382,9.385-9.382
					c2.817,0,5.321,1.269,7.037,3.243l21.322-10.662c-0.135-0.634-0.209-1.288-0.209-1.963c0-5.176,4.201-9.381,9.381-9.381
					c5.184,0,9.389,4.205,9.389,9.381c0,5.186-4.205,9.382-9.389,9.382c-2.82,0-5.32-1.271-7.041-3.243l-21.321,10.66
					c0.134,0.645,0.213,1.289,0.213,1.965c0,0.684-0.079,1.338-0.213,1.963l21.321,10.66c1.721-1.963,4.221-3.232,7.041-3.232
					C53.099,41.873,57.304,46.068,57.304,51.246z"/>
			</g>
		</g>
	</g>
</g>
</svg>
