<?xml version="1.0" encoding="utf-8"?>
<!-- Generator: Adobe Illustrator 16.0.0, SVG Export Plug-In . SVG Version: 6.00 Build 0)  -->
<!DOCTYPE svg PUBLIC "-//W3C//DTD SVG 1.1//EN" "http://www.w3.org/Graphics/SVG/1.1/DTD/svg11.dtd">
<svg version="1.1" id="Layer_1" xmlns="http://www.w3.org/2000/svg" xmlns:xlink="http://www.w3.org/1999/xlink" x="0px" y="0px"
	 width="60.73px" height="60.729px" viewBox="0 0 60.73 60.729" enable-background="new 0 0 60.73 60.729" xml:space="preserve">
<g>
	<g>
		<g>
			<g>
				<g>
					<g>
						<g>
							<path fill="#DCDBDB" d="M30.369,15.17c-2.094,0-3.797,1.702-3.797,3.809c0,2.088,1.703,3.793,3.797,3.793
								c2.097,0,3.794-1.705,3.794-3.793C34.164,16.872,32.466,15.17,30.369,15.17z M30.369,26.563
								c-2.094,0-3.797,1.703-3.797,3.792V41.75c0,2.09,1.703,3.791,3.797,3.791c2.097,0,3.794-1.701,3.794-3.791V30.355
								C34.164,28.267,32.466,26.563,30.369,26.563z M30.369,0C13.622,0,0,13.609,0,30.355c0,16.747,13.622,30.373,30.369,30.373
								c16.746,0,30.361-13.626,30.361-30.373C60.73,13.609,47.115,0,30.369,0z M30.369,55.034
								c-13.606,0-24.676-11.065-24.676-24.679c0-13.597,11.069-24.674,24.676-24.674c13.605,0,24.673,11.077,24.673,24.674
								C55.042,43.969,43.974,55.034,30.369,55.034z"/>
						</g>
					</g>
				</g>
			</g>
		</g>
	</g>
</g>
</svg>
