<?xml version="1.0" encoding="utf-8"?>
<!-- Generator: Adobe Illustrator 16.0.0, SVG Export Plug-In . SVG Version: 6.00 Build 0)  -->
<!DOCTYPE svg PUBLIC "-//W3C//DTD SVG 1.1//EN" "http://www.w3.org/Graphics/SVG/1.1/DTD/svg11.dtd">
<svg version="1.1" id="Layer_1" xmlns="http://www.w3.org/2000/svg" xmlns:xlink="http://www.w3.org/1999/xlink" x="0px" y="0px"
	 width="62.164px" height="62.162px" viewBox="0 0 62.164 62.162" enable-background="new 0 0 62.164 62.162" xml:space="preserve">
<g>
	<g>
		<g>
			<g>
				<g>
					<g>
						<g>
							<path fill="#DCDBDA" d="M16.738,11.953c-1.316,0-2.393-1.082-2.393-2.393V2.393C14.346,1.076,15.422,0,16.738,0l0,0
								c1.314,0,2.389,1.076,2.389,2.393v7.168C19.127,10.871,18.053,11.953,16.738,11.953L16.738,11.953z"/>
						</g>
					</g>
				</g>
			</g>
		</g>
		<g>
			<g>
				<g>
					<g>
						<g>
							<path fill="#DCDBDA" d="M54.99,4.785h-4.779v4.775c0,2.639-2.145,4.783-4.779,4.783c-2.639,0-4.785-2.145-4.785-4.783V4.785
								H21.521v4.775c0,2.639-2.141,4.783-4.783,4.783c-2.641,0-4.785-2.145-4.785-4.783V4.785H7.178C3.217,4.785,0,7.998,0,11.953
								v43.041c0,3.957,3.217,7.168,7.178,7.168H54.99c3.961,0,7.174-3.211,7.174-7.168V11.953
								C62.164,7.998,58.951,4.785,54.99,4.785z M57.383,54.994c0,1.314-1.072,2.381-2.393,2.381H7.178
								c-1.32,0-2.393-1.066-2.393-2.381v-33.48h52.598V54.994z"/>
						</g>
					</g>
				</g>
			</g>
		</g>
		<g>
			<g>
				<g>
					<g>
						<g>
							<path fill="#DCDBDA" d="M45.432,11.953c-1.322,0-2.393-1.082-2.393-2.393V2.393c0-1.316,1.07-2.393,2.393-2.393l0,0
								c1.32,0,2.383,1.076,2.383,2.393v7.168C47.814,10.871,46.752,11.953,45.432,11.953L45.432,11.953z"/>
						</g>
					</g>
				</g>
			</g>
		</g>
	</g>
	<g>
		<g>
			<g>
				<g>
					<g>
						<path fill="#DCDBDA" d="M20.873,45.117c0.973,1.029,2.252,1.953,4.182,1.953c1.967,0,3.387-1.184,3.387-3.002
							c0-1.949-1.338-3.264-5.238-3.264v-1.613c3.492,0,4.648-1.33,4.648-3.047c0-1.596-1.08-2.594-2.828-2.594
							c-1.357,0-2.51,0.689-3.49,1.67l-1.125-1.336c1.256-1.182,2.768-2.053,4.695-2.053c2.85,0,4.898,1.512,4.898,4.15
							c0,1.98-1.205,3.234-2.98,3.904v0.104c1.986,0.461,3.545,1.896,3.545,4.15c0,2.902-2.389,4.676-5.383,4.676
							c-2.625,0-4.287-1.104-5.387-2.311L20.873,45.117z"/>
					</g>
				</g>
			</g>
		</g>
		<g>
			<g>
				<g>
					<g>
						<path fill="#DCDBDA" d="M34.271,46.76h3.742V34.701h-2.971v-1.357c1.488-0.26,2.563-0.668,3.463-1.205h1.609V46.76h3.393
							v1.744h-9.236V46.76z"/>
					</g>
				</g>
			</g>
		</g>
	</g>
</g>
</svg>
