<?xml version="1.0" encoding="utf-8"?>
<!-- Generator: Adobe Illustrator 16.0.0, SVG Export Plug-In . SVG Version: 6.00 Build 0)  -->
<!DOCTYPE svg PUBLIC "-//W3C//DTD SVG 1.1//EN" "http://www.w3.org/Graphics/SVG/1.1/DTD/svg11.dtd">
<svg version="1.1" id="Layer_1" xmlns="http://www.w3.org/2000/svg" xmlns:xlink="http://www.w3.org/1999/xlink" x="0px" y="0px"
	 width="68.72px" height="66.087px" viewBox="0 0 68.72 66.087" enable-background="new 0 0 68.72 66.087" xml:space="preserve">
<g>
	<g>
		<g>
			<g>
				<g>
					<g>
						<path fill="#FFFFFF" stroke="#818181" stroke-width="2" stroke-miterlimit="10" d="M16.697,33.135c0,0,2.527-2.021,4.84-5.978
							c0,0,4.264-6.547,8.385-8.104c0,0,11.373-9.239,14.217-16.636c0,0,3.781-3.778,4.73,1.006c0.045,0.21,0.076,0.447,0.109,0.695
							c0.709,5.824-0.428,10.527-3.84,12.951c0,0-4.908,7.595-1.281,9.379c0,0,7.262,1.948,11.941,0.426c0,0,6.977-1.29,7.973,4.688
							c0,0,0.139,3.698-2.842,4.69c0,0,3.264,3.273,1.986,5.838c0,0-0.711,3.131-2.699,3.416c0,0,2.838,6.826-2.701,9.096
							c0,0,1.418,9.535-8.395,8.822c0,0-1.422,2.129-24.744-1.992C24.377,61.432,17.406,51.189,16.697,33.135z"/>
					</g>
				</g>
			</g>
		</g>
	</g>
	<g>
		<g>
			<g>
				<g>
					<g>
						<path fill="#FFFFFF" stroke="#818181" stroke-width="2" stroke-miterlimit="10" d="M11.037,33.537
							c0,0-10.16-1.68-10.029,2.703C1.129,40.613,1,36.879,1,36.879s2.963,23.795,8.227,26.502c0,0,3.48,0.373,9.654-1.291
							C18.881,62.09,13.139,52.697,11.037,33.537z"/>
					</g>
				</g>
			</g>
		</g>
	</g>
</g>
</svg>
