<?xml version="1.0" encoding="utf-8"?>
<!-- Generator: Adobe Illustrator 16.0.0, SVG Export Plug-In . SVG Version: 6.00 Build 0)  -->
<!DOCTYPE svg PUBLIC "-//W3C//DTD SVG 1.1//EN" "http://www.w3.org/Graphics/SVG/1.1/DTD/svg11.dtd">
<svg version="1.1" id="Layer_1" xmlns="http://www.w3.org/2000/svg" xmlns:xlink="http://www.w3.org/1999/xlink" x="0px" y="0px"
	 width="66.234px" height="66.229px" viewBox="0 0 66.234 66.229" enable-background="new 0 0 66.234 66.229" xml:space="preserve">
<g>
	<g>
		<g>
			<g>
				<g>
					<g>
						<path fill="#7F7F7F" d="M41.392,49.674c13.721,0,24.842-11.125,24.842-24.848C66.234,11.116,55.113,0,41.392,0
							c-13.709,0-24.83,11.116-24.83,24.827C16.562,38.549,27.683,49.674,41.392,49.674z M22.769,24.827
							c0-10.266,8.355-18.628,18.623-18.628c10.273,0,18.629,8.362,18.629,18.628c0,10.277-8.355,18.627-18.629,18.627
							C31.125,43.454,22.769,35.104,22.769,24.827z"/>
					</g>
				</g>
			</g>
		</g>
	</g>
	<g>
		<g>
			<g>
				<g>
					<g>
						<path fill="#7F7F7F" d="M10.597,64.412l15.199-15.203c-3.529-2.254-6.518-5.245-8.783-8.765L1.812,55.625
							c-2.416,2.42-2.416,6.364,0,8.786C4.24,66.834,8.173,66.834,10.597,64.412z"/>
					</g>
				</g>
			</g>
		</g>
	</g>
</g>
</svg>
